# xmcd
#
# Track frame offsets:
#	150
#	18645
#	46320
#	60615
#	83188
#	104862
#	124751
#	149189
#	167066
#	200107
#	218031
#	259280
#	291340
#	307464
#
# Disc length: 4482 seconds
#
# Revision: 0
# Processed by: cddbd v1.5.1PL2 Copyright (c) Steve Scherf et al.
# Submitted via: dBpowerAMP V4.0
#
DISCID=ee11800e
DTITLE=HippyMuzikGroup - HighTimeZ
DYEAR=2006
DGENRE=Blues
TTITLE0=Dance To The Music - Will I Am
TTITLE1=Yellow Moon - Naville Brothers
TTITLE2=Black Magic Woman - Snowy White
TTITLE3=Who's Been Talking - Lucky Peterson
TTITLE4=Del Sur - Vargas Blues Band
TTITLE5=Raros Peinados Nuevos - Vargas Blues Band
TTITLE6=Nothing To Say - Peter Garstenauer Band
TTITLE7=Fool No More - Kim Lembo and Mark Doyle
TTITLE8=Blues Deluxe - Joe Bonamassa
TTITLE9=Who's Been Talking - Working Blues Band
TTITLE10=Purple Rain - Al Pitrelli, Andy Timmons, Brad Gillis, John Petrucci
TTITLE11=Memphis Underground - Hebie Mann
TTITLE12=Woulda Coulda Shoulda - Taj Mahal
TTITLE13=St, James Infirmary - Baba Blues
EXTD=
EXTT0=
EXTT1=
EXTT2=
EXTT3=
EXTT4=
EXTT5=
EXTT6=
EXTT7=
EXTT8=
EXTT9=
EXTT10=
EXTT11=
EXTT12=
EXTT13=
PLAYORDER=
